<?xml version="1.0" encoding="UTF-8"?>
<svg xmlns="http://www.w3.org/2000/svg" width="16" height="16"><path fill="currentColor" d="M2,6H3V7H2V6ZM2,8H3V9H2V8ZM2,10H3V11H2V10ZM2,12H3V13H2V12ZM4,4H5V5H4V4ZM4,6H5V7H4V6ZM4,8H5V9H4V8ZM4,10H5V11H4V10ZM4,12H5V13H4V12ZM6,8H7V9H6V8ZM6,10H7V11H6V10ZM6,12H7V13H6V12ZM8,10H9V11H8V10ZM8,12H9V13H8V12ZM10,6H11V7H10V6ZM10,8H11V9H10V8ZM10,10H11V11H10V10ZM10,12H11V13H10V12ZM12,4H13V5H12V4ZM12,6H13V7H12V6ZM12,8H13V9H12V8ZM12,10H13V11H12V10ZM12,12H13V13H12V12Z"/></svg>