<?xml version="1.0" encoding="UTF-8"?>
<svg xmlns="http://www.w3.org/2000/svg" width="16" height="16"><path fill="currentColor" d="M1,2H14V14H1V2ZM2,3V5H13V3H2ZM2,6V7H3V6H2ZM2,8V9H3V8H2ZM2,10V11H3V10H2ZM2,12V13H3V12H2ZM4,6V7H5V6H4ZM4,8V9H5V8H4ZM4,10V11H5V10H4ZM4,12V13H5V12H4ZM6,6V7H7V6H6ZM6,8V9H7V8H6ZM6,10V11H7V10H6ZM6,12V13H7V12H6ZM8,6V7H9V6H8ZM8,8V9H9V8H8ZM8,10V11H9V10H8ZM8,12V13H9V12H8ZM10,6V7H11V6H10ZM10,8V9H11V8H10ZM10,10V11H11V10H10ZM10,12V13H11V12H10ZM12,6V7H13V6H12ZM12,8V9H13V8H12ZM12,10V11H13V10H12ZM12,12V13H13V12H12Z"/></svg>