<?xml version="1.0" encoding="UTF-8"?>
<svg xmlns="http://www.w3.org/2000/svg" width="16" height="16"><path fill="currentColor" d="M4,1H5V2H4V1ZM4,3H5V4H4V3ZM4,5H5V6H4V5ZM4,7H5V8H4V7ZM4,9H5V10H4V9ZM4,11H5V12H4V11ZM4,13H5V14H4V13ZM6,1H7V2H6V1ZM6,5H7V10H6V5ZM6,13H7V14H6V13ZM7,2H10V3H7V2ZM7,4H10V5H7V4ZM7,10H10V11H7V10ZM7,12H10V13H7V12ZM10,1H11V2H10V1ZM10,5H11V10H10V5ZM10,13H11V14H10V13ZM12,1H13V2H12V1ZM12,3H13V4H12V3ZM12,5H13V6H12V5ZM12,7H13V8H12V7ZM12,9H13V10H12V9ZM12,11H13V12H12V11ZM12,13H13V14H12V13Z"/></svg>