<?xml version="1.0" encoding="UTF-8"?>
<svg xmlns="http://www.w3.org/2000/svg" width="16" height="16"><path fill="currentColor" d="M1,6H2V4H3V3H4V2H6V1H10V2H12V3H13V4H14V6H15V10H14V12H13V13H12V14H10V15H6V14H4V13H3V12H2V10H1V6ZM3,6V10H4V6H3ZM4,5V6H5V5H4ZM4,10V11H5V10H4ZM5,4V5H6V4H5ZM5,11V12H6V11H5ZM6,3V4H7V3H6ZM6,6V8H8V7H7V6H6ZM6,9V10H7V9H6ZM6,12V13H8V12H6ZM7,4V6H9V5H8V4H7ZM7,10V11H8V12H9V10H7ZM8,3V4H10V3H8ZM8,8V9H9V10H10V8H8ZM9,6V7H10V6H9ZM9,12V13H10V12H9ZM10,4V5H11V4H10ZM10,11V12H11V11H10ZM11,5V6H12V5H11ZM11,10V11H12V10H11ZM12,6V10H13V6H12Z"/></svg>