<svg xmlns="http://www.w3.org/2000/svg" viewbox="0 0 65 65" fill="none" id="rad-mark-black" class="icon-1x1-small hide-mobile-portrait">
                        <path fill-rule="evenodd" clip-rule="evenodd" d="M29.6393 4.93988V0H34.5791V4.93988H39.519V9.87976H24.6994V4.93988H29.6393ZM59.2789 29.6392H64.2188V34.5791H59.2789V39.5189H54.339V24.6993H59.2789V29.6392ZM0 34.5797H4.93988V39.5196H9.87976V24.7H4.93988V29.6399H0V34.5797ZM14.8198 14.8189V19.7587H9.87988V9.87899H19.7596V14.8189H14.8198ZM44.4591 14.8189H49.399V19.7587H54.3389V9.87899H44.4591V14.8189ZM49.399 49.3981L49.399 44.4582H54.3389V54.338H44.4591V49.3981H49.399ZM19.7596 49.3981H14.8198V44.4582H9.87988V54.338H19.7596V49.3981ZM34.5797 59.279V64.2188H29.6398L29.6398 59.279H24.6999V54.3391H39.5195V59.279H34.5797ZM24.6991 14.8204H39.5187V19.7603H44.4586V24.7002H49.3985V39.5198H44.4586V44.4597H39.5187V49.3996H24.6991V44.4597H19.7592V39.5198H14.8193V24.7002H19.7592V19.7603H24.6991V14.8204Z" fill="currentColor"></path>
                      </svg>