<svg xmlns="http://www.w3.org/2000/svg" viewbox="0 0 130 130" fill="none" id="rad-mark-cream">
                              <path d="M20 50V80H10V70H0V60H10V50H20Z" fill="#FEF8E2"></path>
                              <path d="M30 100V90H20V110H40V100H30Z" fill="#FEF8E2"></path>
                              <path d="M40 30V20H20V40H30V30H40Z" fill="#FEF8E2"></path>
                              <path d="M60 10H50V20H80V10H70V0H60V10Z" fill="#FEF8E2"></path>
                              <path d="M80 110H50V120H60V130H70V120H80V110Z" fill="#FEF8E2"></path>
                              <path d="M80 40V30H50V40H40V50H30V80H40V90H50V100H80V90H90V80H100V50H90V40H80Z" fill="#FEF8E2"></path>
                              <path d="M90 100V110H110V90H100V100H90Z" fill="#FEF8E2"></path>
                              <path d="M100 30V40H110V20H90V30H100Z" fill="#FEF8E2"></path>
                              <path d="M110 80H120V70H130V60H120V50H110V80Z" fill="#FEF8E2"></path>
                            </svg>