<svg xmlns="http://www.w3.org/2000/svg" viewbox="0 0 940 130" fill="none" id="wordmark-black">
                              <path d="M840 100V90H830V110H850V100H840Z" fill="#0F0E0C"></path>
                              <path d="M850 30V20H830V40H840V30H850Z" fill="#0F0E0C"></path>
                              <path d="M870 10H860V20H890V10H880V0H870V10Z" fill="#0F0E0C"></path>
                              <path d="M890 110H860V120H870V130H880V120H890V110Z" fill="#0F0E0C"></path>
                              <path d="M890 40V30H860V40H850V50H840V80H850V90H860V100H890V90H900V80H910V50H900V40H890Z" fill="#0F0E0C"></path>
                              <path d="M900 100V110H920V90H910V100H900Z" fill="#0F0E0C"></path>
                              <path d="M910 30V40H920V20H900V30H910Z" fill="#0F0E0C"></path>
                              <path d="M920 80H930V70H940V60H930V50H920V80Z" fill="#0F0E0C"></path>
                              <path d="M0 130H850V120H10V10C289.96 10 570.04 10 850 10V0C566.7 0 283.3 0 0 0V130Z" fill="#0F0E0C"></path>
                              <path d="M70 80V90H80V110H110V90H100V70H110V30H100V20C73.72 20 46.28 20 20 20V110H40V80H70ZM50 60H40V40C56.03 40 73.97 40 90 40V60C77.47 60 62.53 60 50 60Z" fill="#0F0E0C"></path>
                              <path d="M190 80V110H210V40H200V30H190V20H140V30H130V40H120V110H140V80H190ZM140 60V50H150V40H180V50H190V60H140Z" fill="#0F0E0C"></path>
                              <path d="M300 110V100H310V30H300V20H220V110H300ZM290 40V90H240V40H290Z" fill="#0F0E0C"></path>
                              <path d="M390 110V90H370V40H390V30H400V20H320V30H330V40H350V90H330V100H320V110H390Z" fill="#0F0E0C"></path>
                              <path d="M470 80V110H490V40H480V30H470V20H420V30H410V40H400V110H420V80H470ZM420 60V50H430V40H460V50H470V60H420Z" fill="#0F0E0C"></path>
                              <path d="M530 70H540V80H550V90H560V100H570V110H590V100H600V20H570V30H580V70H570V60H560V50H550V40H540V30H530V20H510V30H500V110H530V100H520V60H530V70Z" fill="#0F0E0C"></path>
                              <path d="M670 110V40H700V30H710V20H610V40H640V110H670Z" fill="#0F0E0C"></path>
                              <path d="M800 40V30H810V20H730V30H720V50H730V60H740V70H750V80H760V90H710V100H700V110H780V100H790V80H780V70H770V60H760V50H750V40H800Z" fill="#0F0E0C"></path>
                              <path d="M830 50V80H820V70H810V60H820V50H830Z" fill="#0F0E0C"></path>
                              <path d="M930 10V40H940V0H900V10H930Z" fill="#0F0E0C"></path>
                              <path d="M930 120H900V130H940V90H930V120Z" fill="#0F0E0C"></path>
                            </svg>